<svg width="168" height="203" viewBox="0 0 168 203" fill="none" xmlns="http://www.w3.org/2000/svg">
<path opacity="0.5" d="M149.885 152.223C148.683 153.582 147.49 154.868 146.257 156.168C141.323 161.317 136.003 166.204 129.842 170.306C129.751 170.267 130.333 169.772 130.425 169.622C130.472 169.546 130.396 169.558 130.054 169.753C129.883 169.851 129.647 169.995 129.324 170.198C128.996 170.394 128.577 170.643 128.051 170.956C125.296 172.634 122.466 174.053 119.505 175.139C119.519 175.351 119.533 175.563 119.546 175.771C119.566 176.083 119.585 176.391 119.604 176.694C119.625 176.996 119.682 177.289 119.717 177.579C119.797 178.158 119.873 178.716 119.947 179.249C120.018 179.784 120.086 180.295 120.151 180.78C120.233 181.252 120.334 181.682 120.414 182.097C120.493 182.511 120.57 182.897 120.678 183.243C120.772 183.594 120.859 183.917 120.938 184.211C121.038 184.624 121.206 184.996 121.337 185.374C121.484 185.744 121.59 186.123 121.758 186.461C122.081 187.141 122.351 187.81 122.705 188.384C122.87 188.678 123.031 188.964 123.187 189.242C123.365 189.505 123.537 189.761 123.705 190.009C124.021 190.521 124.389 190.945 124.716 191.36C125.028 191.788 125.388 192.125 125.697 192.464C125.856 192.628 125.997 192.802 126.155 192.943C126.313 193.086 126.465 193.224 126.611 193.356C127.177 193.908 127.718 194.287 128.141 194.631C129.915 195.894 130.185 196.069 129.334 195.784C128.513 195.462 126.632 194.51 124.751 192.768C124.256 192.36 123.835 191.839 123.355 191.346C123.114 191.1 122.921 190.81 122.697 190.539C122.486 190.259 122.246 189.994 122.053 189.696L121.462 188.802C121.366 188.652 121.26 188.506 121.17 188.352L120.911 187.883C120.738 187.57 120.566 187.259 120.396 186.951C120.227 186.642 120.099 186.316 119.951 186.005C119.536 185.103 119.322 184.432 119.139 183.973C118.963 183.512 118.827 183.255 118.761 183.114C118.611 182.834 118.569 183.062 118.496 183.153C118.424 183.244 118.32 183.197 118.042 182.348C117.973 182.135 117.893 181.873 117.8 181.549C117.699 181.226 117.644 180.835 117.55 180.377C117.465 179.917 117.368 179.385 117.256 178.774C117.202 178.467 117.144 178.14 117.083 177.791C117.023 177.442 116.951 177.072 116.926 176.674C116.936 176.817 116.947 176.959 116.957 177.101C116.977 177.241 116.997 177.38 117.017 177.518C117.057 177.794 117.098 178.066 117.137 178.334C117.216 178.87 117.293 179.391 117.368 179.898C117.444 180.405 117.517 180.899 117.589 181.382C117.696 181.862 117.801 182.332 117.904 182.792C117.957 183.022 118.008 183.251 118.06 183.476C118.128 183.698 118.194 183.918 118.26 184.137C118.394 184.574 118.525 185.005 118.656 185.431C118.818 185.847 118.978 186.258 119.137 186.668C119.219 186.872 119.293 187.079 119.38 187.28L119.666 187.872C120.385 189.47 121.345 190.96 122.532 192.446C123.732 193.922 125.225 195.377 127.201 196.655C127.294 196.759 126.991 196.583 126.408 196.182C126.118 195.981 125.743 195.744 125.358 195.402C124.971 195.065 124.494 194.718 124.056 194.247C123.829 194.02 123.593 193.783 123.348 193.538C123.103 193.293 122.888 193.004 122.647 192.727C122.418 192.439 122.152 192.167 121.939 191.847C121.717 191.531 121.492 191.211 121.263 190.884C121.022 190.566 120.837 190.206 120.628 189.858C120.429 189.503 120.201 189.16 120.024 188.789C119.677 188.043 119.28 187.313 119.014 186.54C118.868 186.16 118.722 185.781 118.579 185.408C118.464 185.025 118.349 184.646 118.238 184.274C117.991 183.536 117.846 182.801 117.692 182.113C117.517 181.426 117.439 180.776 117.346 180.186C117.254 179.597 117.171 179.066 117.1 178.609C116.959 177.696 116.827 177.084 116.8 176.894C116.764 176.706 116.703 176.954 116.776 177.755C116.947 178.857 117.119 179.976 117.293 181.106C117.376 181.672 117.537 182.24 117.655 182.811C117.725 183.096 117.772 183.387 117.86 183.668L118.116 184.517C118.798 186.782 119.786 189.018 121.139 191.05C122.487 193.082 124.201 194.9 126.177 196.342C128.15 197.787 130.373 198.854 132.656 199.508C132.453 199.47 132.151 199.4 131.763 199.3C131.373 199.21 130.921 199.02 130.386 198.835C129.846 198.663 129.278 198.359 128.637 198.068C128.312 197.931 128.005 197.726 127.671 197.541C127.346 197.343 126.987 197.171 126.658 196.929C125.288 196.045 123.901 194.845 122.627 193.444C121.336 192.05 120.278 190.37 119.395 188.665C118.489 186.961 117.925 185.159 117.44 183.507C117.344 183.087 117.25 182.677 117.158 182.278C117.07 181.879 116.962 181.489 116.917 181.115C116.799 180.366 116.689 179.667 116.589 179.032C116.485 178.396 116.391 177.823 116.31 177.328C116.25 176.879 116.221 176.494 116.185 176.181C116.145 176.191 116.106 176.201 116.065 176.21C116.07 176.283 116.074 176.355 116.079 176.43C116.095 176.647 116.111 176.876 116.128 177.118C116.151 177.36 116.199 177.612 116.236 177.876C116.401 178.931 116.596 180.166 116.807 181.514C117.33 184.244 118.413 187.374 120.069 190.09C120.861 191.467 121.86 192.685 122.825 193.787C123.085 194.046 123.341 194.3 123.591 194.55C123.844 194.798 124.08 195.052 124.347 195.261C124.87 195.689 125.335 196.138 125.836 196.47C126.792 197.201 127.689 197.714 128.359 198.135C129.055 198.507 129.533 198.785 129.722 198.939C129.797 199 129.304 198.781 128.453 198.38C128.025 198.185 127.545 197.872 126.988 197.557C126.705 197.404 126.433 197.202 126.144 197C125.856 196.797 125.557 196.585 125.249 196.367C124.961 196.125 124.664 195.876 124.363 195.623C124.212 195.496 124.06 195.368 123.908 195.239C123.766 195.098 123.623 194.957 123.48 194.815C123.195 194.53 122.908 194.242 122.622 193.956C122.361 193.646 122.1 193.338 121.842 193.032C121.713 192.88 121.586 192.727 121.459 192.576C121.344 192.416 121.231 192.257 121.118 192.1C120.93 191.835 120.748 191.577 120.569 191.323C121.179 192.244 121.834 193.117 122.54 193.921C123.747 195.219 125.029 196.374 126.398 197.298C129.13 199.162 132.039 200.201 134.666 200.735C137.309 201.24 139.684 201.258 141.634 201.097C142.606 200.985 143.489 200.909 144.249 200.745C144.631 200.674 144.988 200.609 145.319 200.548C145.645 200.469 145.944 200.397 146.216 200.33C147.313 200.087 147.948 199.867 148.119 199.87C148.286 199.861 147.979 200.043 147.115 200.394C146.676 200.547 146.099 200.751 145.368 200.977C144.625 201.157 143.742 201.42 142.669 201.577C142.401 201.621 142.124 201.669 141.837 201.717C141.547 201.746 141.246 201.777 140.935 201.809C140.623 201.838 140.302 201.868 139.969 201.9C139.634 201.908 139.29 201.917 138.934 201.926C137.51 201.971 135.905 201.852 134.142 201.548C136.579 202.033 139.341 202.175 142.161 201.795C144.982 201.43 147.856 200.588 150.54 199.329C153.232 198.08 155.711 196.388 157.843 194.485C159.983 192.584 161.772 190.47 163.218 188.395C163.213 188.405 163.191 188.443 163.179 188.462C162.808 188.973 162.404 189.532 161.975 190.125C161.515 190.694 161.022 191.294 160.503 191.907C159.416 193.09 158.212 194.325 156.873 195.396C155.568 196.508 154.129 197.437 152.782 198.248C152.096 198.628 151.43 198.98 150.8 199.293C155.481 197.068 159.526 193.603 162.55 189.479C162.087 190.265 161.448 191.08 160.797 191.962C159.359 193.591 157.767 195.102 156.004 196.449C154.236 197.79 152.281 198.934 150.181 199.868C151.088 199.498 151.937 199.015 152.805 198.568C153.634 198.055 154.49 197.579 155.272 196.996C155.664 196.709 156.081 196.45 156.454 196.136L157.591 195.218C157.971 194.914 158.314 194.567 158.676 194.242C159.034 193.912 159.397 193.587 159.723 193.227C159.604 193.364 159.484 193.503 159.363 193.643C159.233 193.776 159.102 193.909 158.969 194.044C158.703 194.313 158.432 194.586 158.157 194.865C157.603 195.421 156.971 195.932 156.347 196.491C155.031 197.525 153.594 198.593 151.94 199.482C148.84 201.187 145.42 202.261 142.009 202.754C141.581 202.808 141.152 202.843 140.726 202.885L140.087 202.946C139.874 202.961 139.66 202.961 139.448 202.969C139.022 202.979 138.598 202.99 138.176 203C137.753 202.991 137.333 202.966 136.914 202.948C136.076 202.934 135.253 202.789 134.438 202.7C134.032 202.638 133.633 202.548 133.234 202.472C132.836 202.39 132.438 202.323 132.054 202.204C128.946 201.399 126.174 200.023 123.967 198.393C121.749 196.767 120.108 194.915 118.938 193.266C118.318 192.445 117.82 191.559 117.305 190.681C117.057 190.238 116.852 189.778 116.627 189.325L116.298 188.642C116.194 188.413 116.11 188.178 116.016 187.946L115.471 186.547C115.316 186.074 115.176 185.6 115.03 185.125C114.711 184.18 114.546 183.217 114.318 182.26C114.136 181.319 114.029 180.423 113.883 179.502L113.678 178.128L113.58 177.441L113.528 176.748C113.528 176.745 113.528 176.743 113.528 176.74L112.9 176.85L112.178 176.921C111.696 176.966 111.216 177.011 110.735 177.055L109.27 177.069L108.537 177.069C108.292 177.057 108.046 177.03 107.8 177.01L106.326 176.872C102.391 176.312 98.5836 174.614 95.4744 172.167C95.1027 171.847 94.7302 171.525 94.3565 171.203C93.9939 170.873 93.5882 170.567 93.2651 170.205C92.9275 169.853 92.5882 169.499 92.2477 169.143L91.7385 168.605C91.5691 168.425 91.4254 168.227 91.2676 168.038C90.9599 167.654 90.6509 167.269 90.3403 166.881L89.8764 166.295L89.4437 165.656C89.1634 165.225 88.854 164.797 88.5994 164.353C88.3457 163.908 88.0903 163.461 87.8332 163.011C87.7232 162.641 87.6331 162.231 87.5321 161.839C86.0907 159.034 85.0351 156.06 84.3245 153.039C83.6044 150.015 83.1812 146.943 82.9744 143.865C82.9038 142.805 82.8677 141.744 82.8461 140.683L81.8175 140.752C79.4778 140.823 77.0205 140.542 74.6788 139.705C72.3366 138.88 70.1804 137.492 68.4512 135.802C66.7103 134.112 65.3661 132.162 64.3021 130.16C63.2415 128.151 62.4329 126.08 61.8171 123.996C60.5849 119.824 59.9454 115.612 59.6294 111.419C59.3067 107.222 59.3013 103.04 59.5172 98.8565L59.5596 98.0693L59.624 97.2551C59.6518 96.8485 59.6917 96.4488 59.7353 96.0508C56.935 96.9073 54.0542 97.5166 51.1132 97.6743C48.3611 97.832 45.4176 97.5787 42.5804 96.5753C41.1689 96.0666 39.798 95.3736 38.5281 94.5088C37.266 93.6328 36.1057 92.5912 35.0879 91.4239C33.0493 89.0822 31.5821 86.2944 30.5348 83.3983C29.4928 80.4935 28.852 77.4662 28.4708 74.434C27.7229 68.3596 27.9878 62.2658 28.7682 56.4893C29.0277 54.5904 29.352 52.7284 29.7233 50.9021C29.2673 50.9539 28.8068 50.9959 28.34 51.0145C27.1718 51.0573 25.982 50.966 24.8686 50.6896C24.3454 50.546 23.6315 50.283 22.9459 50.0448C22.5933 49.9352 22.2644 49.7796 21.9255 49.6335C21.5879 49.4841 21.2416 49.3439 20.8986 49.1853C20.5626 49.0102 20.2225 48.833 19.8782 48.6542C19.7071 48.5625 19.5298 48.482 19.3603 48.3811C19.1926 48.2782 19.0236 48.1749 18.8537 48.0707C18.5165 47.8578 18.1627 47.6657 17.8259 47.4334C17.4912 47.1981 17.1523 46.959 16.8093 46.7175C15.4671 45.7074 14.1199 44.5538 12.8429 43.1811C11.5705 41.8046 10.3413 40.2502 9.18678 38.5106C8.269 37.159 7.39567 35.6303 6.53936 34.0106C5.70963 32.3736 4.93016 30.6257 4.22002 28.816C3.53066 26.9967 2.91437 25.1194 2.38032 23.2354C1.86246 21.3464 1.43349 19.4533 1.0805 17.6133C0.410233 13.9262 0.0755042 10.4547 0.0181952 7.63325C-0.0565556 4.80852 0.114528 2.64485 0.248664 1.48209C0.492434 -0.481563 0.545615 -0.310265 0.503257 0.928016C0.475848 1.57455 0.455891 2.35676 0.429313 3.31867C0.426821 3.79548 0.423507 4.30341 0.4206 4.82711C0.432643 5.35247 0.445102 5.89361 0.457145 6.43432C0.612875 10.7778 1.35747 15.0758 1.09418 11.3655C1.34917 14.4591 1.85747 17.5361 2.54891 20.5525C3.23953 23.5702 4.15647 26.5228 5.29891 29.3492C6.44011 32.1747 7.79352 34.8903 9.42724 37.3598C11.0543 39.8293 12.9085 42.1063 15.0472 43.9712L15.8475 44.6709L16.6847 45.312C17.2291 45.7622 17.8321 46.1113 18.4044 46.5113C18.6942 46.7055 19.0045 46.8603 19.3022 47.0383C19.6062 47.2035 19.894 47.4031 20.2117 47.54C20.8367 47.8338 21.4451 48.1654 22.0954 48.3965C22.4172 48.5218 22.7308 48.6588 23.058 48.7779L24.0684 49.0966L24.5725 49.2584C24.7274 49.3044 24.8429 49.3277 24.9791 49.3659C25.1103 49.4065 25.2411 49.4298 25.3711 49.451C25.5036 49.4713 25.6257 49.5073 25.7656 49.5194C26.3051 49.5974 26.894 49.6173 27.5003 49.6132C28.1174 49.5841 28.7478 49.5468 29.404 49.4372C29.6207 49.4052 29.84 49.3626 30.0584 49.3227C30.7619 46.1623 31.6145 43.1297 32.5871 40.2792C32.575 41.1224 33.5132 38.7073 35.323 34.9758C36.2353 33.1147 37.3819 30.9286 38.7876 28.7023C40.1921 26.4797 41.8495 24.2031 43.766 22.2407C45.6693 20.2779 47.857 18.6316 50.075 17.7523C51.1784 17.3116 52.2722 17.049 53.2789 16.9809C54.2855 16.9041 55.1958 16.9967 55.9579 17.1664C56.722 17.3316 57.3399 17.5735 57.8005 17.7976C58.2639 18.0142 58.57 18.2275 58.7241 18.3516C59.0251 18.625 58.7095 18.5503 57.602 18.2553C59.0737 18.7906 60.5841 19.6437 61.5538 20.9032C62.5405 22.1564 62.8744 23.8533 62.6231 25.5862C62.381 27.3217 61.6792 29.0529 60.8025 30.6356C59.9354 32.23 58.8781 33.6894 57.8187 35.0194C55.6684 37.6677 53.4317 39.7576 51.7183 41.2125C49.9969 42.6649 48.7955 43.4969 48.5505 43.6019C47.8059 43.9115 46.7 44.4838 44.9658 45.3876C43.232 46.2806 40.8557 47.5255 37.5098 48.843C36.9866 49.0434 36.4355 49.2439 35.8632 49.4397C34.7158 54.1858 33.9754 59.0385 33.7183 63.8717C33.5609 66.9317 33.5987 69.9863 33.9093 72.9634C34.2142 75.9387 34.7943 78.8418 35.7332 81.5018C36.6793 84.1498 37.9994 86.5422 39.7216 88.3294C41.4409 90.1209 43.5422 91.2919 45.9911 91.8322C48.4321 92.3899 51.205 92.2795 54.011 91.7513C56.2278 91.3301 58.4682 90.6392 60.6917 89.7868C60.9221 88.6079 61.1738 87.4356 61.4404 86.2674C62.3877 82.1683 63.565 78.1323 64.9408 74.1469C66.3071 70.1594 67.9084 66.2337 69.7369 62.3823C71.5683 58.533 73.6875 54.7758 76.1775 51.1959C77.4462 49.4189 78.805 47.6857 80.31 46.0445C81.8366 44.4186 83.4964 42.8782 85.354 41.52C87.2277 40.1755 89.3091 39.0492 91.616 38.3023L92.4844 38.0263C92.7751 37.94 93.0732 37.8923 93.3673 37.8246C93.6609 37.7566 93.959 37.703 94.2618 37.6615C94.5666 37.6204 94.8552 37.5599 95.1766 37.5416C95.4947 37.5197 95.7992 37.481 96.1281 37.4777C96.4644 37.481 96.775 37.4656 97.1326 37.4922L97.6787 37.5453C97.8589 37.5632 98.0396 37.5831 98.2422 37.6312C98.6355 37.7155 99.0292 37.7972 99.4005 37.9504C100.16 38.206 100.847 38.6417 101.437 39.1699C102.033 39.7036 102.466 40.3892 102.803 41.1083C102.946 41.4806 103.101 41.8503 103.182 42.2432C103.228 42.4362 103.279 42.6367 103.311 42.8247L103.381 43.3724C103.463 44.0957 103.444 44.7211 103.409 45.3622C103.319 46.6204 103.077 47.7836 102.782 48.9069C102.482 50.0286 102.126 51.1113 101.73 52.1661C100.931 54.2713 100.003 56.2893 98.9964 58.2559C97.9923 60.2241 96.9117 62.1437 95.7771 64.0302C93.5101 67.8048 91.0346 71.4524 88.3868 75.0034C86.1152 77.9841 83.7352 80.8827 81.1522 83.6327C79.8544 85.0042 78.5106 86.3397 77.0243 87.5892C76.2714 88.21 75.4911 88.8121 74.5758 89.354C74.3561 89.4806 74.1194 89.598 73.9138 89.7121L73.3212 90.0424C72.9217 90.2624 72.5417 90.4836 72.126 90.7027C70.4325 91.616 68.7137 92.4813 66.9653 93.2784C66.8648 93.9196 66.7697 94.5619 66.6867 95.2068C66.4699 96.9107 66.3511 98.5145 66.2946 100.352C66.2294 102.15 66.2195 103.972 66.2606 105.809C66.3362 109.484 66.6476 113.227 67.2996 116.916C67.9832 120.575 69.0243 124.232 70.751 127.281C71.6127 128.796 72.6485 130.128 73.8478 131.144C75.0475 132.162 76.403 132.868 77.9362 133.25C79.467 133.635 81.1821 133.686 82.9786 133.469C83.0019 133.466 83.0251 133.462 83.0479 133.459C83.2469 130.767 83.567 128.08 83.9977 125.406C84.9852 119.782 86.4159 114.276 88.3191 108.895C88.5674 108.224 88.7971 107.551 89.062 106.883L89.4499 105.882L89.8839 104.818L90.1069 104.281L90.2186 104.013L90.3901 103.675L90.5662 103.338L90.719 103.062L91.0139 102.544C91.4067 101.868 91.8041 101.246 92.2053 100.626C93.8133 98.1872 95.496 95.9425 97.236 93.734C100.722 89.337 104.412 85.1586 108.418 81.1923C110.426 79.2125 112.515 77.2911 114.777 75.474C115.909 74.566 117.084 73.6838 118.341 72.8463C119.601 72.0114 120.936 71.2155 122.458 70.525C122.165 70.7167 121.956 70.8678 122.12 70.8346C122.289 70.8072 122.78 70.5636 124.108 70.1092C124.284 70.0507 124.46 69.9926 124.638 69.9336C124.828 69.8826 125.019 69.8311 125.211 69.7796C125.581 69.6705 126.021 69.6008 126.441 69.524C126.652 69.4867 126.895 69.4705 127.123 69.4464C127.355 69.4248 127.581 69.402 127.859 69.4078C128.125 69.4086 128.39 69.4112 128.66 69.4257C128.943 69.4552 129.228 69.4921 129.512 69.5361C130.643 69.739 131.754 70.1797 132.722 70.876C132.957 71.0578 133.19 71.247 133.418 71.4417C133.637 71.6471 133.842 71.8703 134.047 72.0936C134.259 72.3135 134.427 72.5621 134.605 72.8077C134.779 73.0542 134.962 73.3164 135.072 73.536C136.108 75.4063 136.473 77.1803 136.687 78.8456C136.893 80.5196 136.905 82.1418 136.848 83.734L136.827 84.3341L136.77 84.9938C136.728 85.4358 136.686 85.8811 136.644 86.3276C136.569 86.7588 136.493 87.1919 136.417 87.6272C136.341 88.0634 136.261 88.5004 136.145 88.9145C136.037 89.3349 135.928 89.7565 135.819 90.1802C135.714 90.6076 135.562 91.0019 135.435 91.4164C135.298 91.8243 135.172 92.2426 135.024 92.6455C134.869 93.0435 134.714 93.4427 134.558 93.8435C133.289 97.0314 131.676 100.048 129.885 102.942C129.336 103.781 128.792 104.625 128.228 105.445C127.652 106.253 127.102 107.081 126.51 107.857C125.56 109.056 125.253 109.319 125.053 109.474C123.235 111.898 121.406 114.084 119.621 116.13C117.839 118.178 116.062 120.048 114.319 121.816C111.395 124.676 108.334 127.404 105.102 129.965C103.468 131.228 101.824 132.481 100.086 133.644C99.2356 134.243 98.332 134.791 97.4511 135.36C96.535 135.897 95.6434 136.455 94.6854 136.95C93.7543 137.471 92.7643 137.935 91.7743 138.398L90.614 138.882C90.5812 140.729 90.6243 142.543 90.751 144.314C90.8843 146.023 91.0616 147.7 91.3623 149.308C91.4852 150.122 91.685 150.9 91.8469 151.685C92.0562 152.45 92.2298 153.224 92.479 153.955C93.3781 156.916 94.702 159.574 96.2813 161.747C97.9561 163.999 99.8826 165.873 101.889 167.126C103.901 168.393 106.001 169.076 108.084 169.298C109.848 169.489 111.596 169.352 113.258 169.026L113.26 168.436L113.46 165.673L113.563 164.291C113.593 163.83 113.684 163.377 113.741 162.918L114.138 160.178C114.193 159.72 114.29 159.269 114.39 158.819L114.68 157.468L114.972 156.116C115.07 155.666 115.158 155.212 115.296 154.773L116.057 152.118C116.189 151.676 116.301 151.228 116.452 150.794L116.917 149.495C119.362 142.557 122.839 135.976 127.342 130.156L129.042 127.984C129.621 127.27 130.254 126.6 130.859 125.907L131.777 124.876L132.238 124.363L132.728 123.876L134.692 121.933C135.33 121.269 136.044 120.679 136.739 120.07L138.838 118.256C140.296 117.093 141.767 115.999 143.332 114.958C144.899 113.925 146.523 112.941 148.295 112.075C149.176 111.638 150.108 111.241 151.074 110.875C152.059 110.523 153.084 110.206 154.203 109.982C155.331 109.769 156.549 109.639 157.883 109.726C159.206 109.811 160.686 110.15 162.047 110.892C163.412 111.618 164.562 112.705 165.374 113.839C165.805 114.412 166.106 114.986 166.414 115.568C166.551 115.855 166.664 116.138 166.786 116.424L166.962 116.854L167.099 117.272L167.363 118.11C167.436 118.383 167.494 118.652 167.559 118.923C167.697 119.465 167.777 120.008 167.862 120.553C167.957 121.027 167.997 121.832 168 122.459L167.961 123.395C167.938 123.699 167.896 123.989 167.861 124.286C167.696 125.452 167.43 126.539 167.095 127.538C166.771 128.553 166.382 129.491 165.971 130.4C164.298 134 162.226 137.061 160.068 139.982C157.904 142.893 155.613 145.629 153.317 148.282L149.885 152.223ZM150.775 199.306C150.135 199.587 149.545 199.862 148.999 200.079C149.601 199.843 150.192 199.582 150.775 199.306ZM120.302 190.918C119.977 190.396 119.694 189.889 119.425 189.442C119.702 189.949 119.997 190.438 120.302 190.918ZM37.475 46.7889C40.1548 45.5158 42.7577 43.9388 45.2249 42.1777C47.6909 40.4128 50.0276 38.4516 52.1423 36.3344C54.2482 34.2214 56.1618 31.9287 57.548 29.5774C57.7303 29.2853 57.8736 28.9915 58.0405 28.6998C58.1775 28.4089 58.3433 28.1167 58.4608 27.8296C58.7324 27.2515 58.9267 26.6887 59.0837 26.1555C59.3972 25.0811 59.401 24.1932 59.2602 23.6587C59.1842 23.3877 59.0775 23.1802 58.908 22.9528C58.7357 22.7292 58.4977 22.4839 58.1481 22.2374C57.7917 22.0037 57.3287 21.739 56.8241 21.5274C56.3466 21.3311 55.8856 21.1949 55.4296 21.1144C54.521 20.9522 53.6302 21.0161 52.6622 21.3219C51.7 21.6228 50.6792 22.1705 49.6821 22.9254C47.6771 24.433 45.8125 26.6365 44.2046 29.0682C42.5887 31.5099 41.1892 34.1994 39.9762 36.9939C38.764 39.7912 37.7316 42.6989 36.8645 45.6618C36.7087 46.1955 36.5646 46.7332 36.4193 47.2706C36.7727 47.1146 37.1249 46.9541 37.475 46.7889ZM68.7323 85.9986C69.0816 85.8035 69.4018 85.6355 69.7747 85.4193L70.8806 84.783L71.1572 84.6242L71.3681 84.5071L71.5621 84.4038L71.7182 84.3025L71.8765 84.2046L72.0533 84.078C72.1709 83.9958 72.2901 83.9137 72.4184 83.8099C72.9192 83.4323 73.4557 82.9667 73.9869 82.4741C75.0542 81.4886 76.1185 80.3777 77.1551 79.2244C79.2323 76.913 81.2199 74.4253 83.1194 71.8695C85.018 69.3104 86.8341 66.6728 88.5384 63.9763C90.2414 61.2806 91.844 58.5252 93.2601 55.7291C93.9661 54.3319 94.6243 52.9238 95.2024 51.5196C95.7747 50.1194 96.2888 48.7086 96.6256 47.3757C96.8058 46.7051 96.9187 46.0693 97.0006 45.4775L97.0433 45.0534C97.0545 44.9165 97.0512 44.797 97.0595 44.6679C97.0724 44.5322 97.0545 44.4385 97.0541 44.3281C97.0512 44.2792 97.055 44.2098 97.0491 44.1775C97.0421 44.1513 97.0371 44.1247 97.0338 44.0982C97.0309 44.072 97.0301 44.0434 97.0313 44.0177L97.0296 44.0102L97.0255 43.9953C97.0226 43.9858 97.0172 43.9766 97.0109 43.9683C96.9935 43.9575 96.9827 43.9372 96.9599 43.9355L96.9445 43.9322C96.8922 43.9359 96.827 43.9335 96.7697 43.9223C96.7506 43.9131 96.6945 43.9144 96.6347 43.9177L96.4665 43.9202L96.2979 43.9177L96.099 43.938L95.6966 43.9732L95.2518 44.0459C94.9561 44.0795 94.6526 44.1742 94.3519 44.2294C94.055 44.3049 93.778 44.4236 93.4877 44.5111L93.0554 44.6493C92.91 44.7049 92.763 44.7812 92.6164 44.8451L91.7319 45.2369L90.8639 45.7307C89.288 46.632 87.1497 48.1645 84.8768 50.7357C84.5936 51.0565 84.3033 51.3851 84.0068 51.7213C83.7232 52.0761 83.4333 52.4387 83.1368 52.8089C82.989 52.9952 82.8403 53.1832 82.6891 53.3729C82.5454 53.5712 82.4001 53.7717 82.2531 53.9733C81.9628 54.3813 81.6513 54.7821 81.3602 55.2179C80.1725 56.9383 78.994 58.8904 77.8212 61.0312C75.4882 65.3241 73.2601 70.4395 71.2942 76.2014C70.3146 79.0826 69.4051 82.1293 68.6086 85.313C68.5367 85.6001 68.4666 85.8907 68.3964 86.1803C68.5093 86.1189 68.6215 86.0612 68.7323 85.9986ZM93.6339 129.16C95.4038 128.045 97.1451 126.811 98.8635 125.517C102.284 122.893 105.593 119.994 108.734 116.885C111.888 113.789 114.869 110.478 117.649 107.019C119.022 105.279 120.371 103.515 121.606 101.691C122.247 100.791 122.819 99.8586 123.421 98.9398C123.981 98.0041 124.564 97.0766 125.074 96.1247C126.124 94.2337 127.078 92.3048 127.799 90.364C128.527 88.4273 129.064 86.4812 129.241 84.6457L129.309 83.9544L129.339 83.1688C129.369 82.6368 129.349 82.145 129.355 81.6355C129.326 80.647 129.25 79.6871 129.09 78.8613C129.042 78.668 129.005 78.4601 128.956 78.2775C128.897 78.1131 128.854 77.9231 128.796 77.7762L128.709 77.5671L128.67 77.4608L128.625 77.3837C128.595 77.3327 128.569 77.2803 128.545 77.2264C128.52 77.1761 128.505 77.1878 128.493 77.1608C128.457 77.0778 128.4 77.0288 128.328 76.9969C128.267 76.9517 128.193 76.9218 128.116 76.9143C128.091 76.9023 128.011 76.9234 127.941 76.9114C127.909 76.9035 127.824 76.9255 127.768 76.9276C127.702 76.9363 127.648 76.9285 127.566 76.9517C127.413 76.9853 127.268 76.999 127.087 77.0579L126.827 77.1272L126.547 77.2247C125.792 77.487 124.949 77.8999 124.111 78.3883C122.424 79.3697 120.732 80.6337 119.102 81.9853C115.833 84.7071 112.76 87.8036 109.855 90.9803C106.955 94.1673 104.211 97.4726 101.699 100.821C100.449 102.491 99.2481 104.192 98.2265 105.843C97.9715 106.253 97.7369 106.662 97.53 107.036C97.4042 107.226 97.209 107.753 97.0388 108.163C96.8656 108.574 96.6825 109.062 96.5022 109.529C96.3183 109.997 96.1472 110.47 95.9773 110.943C94.6102 114.724 93.528 118.564 92.68 122.364C92.0732 125.118 91.5903 127.857 91.2427 130.557C92.0421 130.118 92.8407 129.652 93.6339 129.16ZM121.452 155.649C121.339 156.046 121.218 156.441 121.113 156.839C121.025 157.241 120.939 157.643 120.852 158.043C120.677 158.844 120.504 159.641 120.331 160.432C120.175 161.226 120.088 162.025 119.964 162.81C119.905 163.203 119.848 163.594 119.79 163.983C119.733 164.372 119.667 164.758 119.65 165.146C119.604 165.744 119.559 166.33 119.515 166.915L119.9 166.742C120.133 161.799 120.999 157.211 122.14 153.263C121.91 154.059 121.681 154.855 121.452 155.649ZM144.454 146.252L145.591 144.944C146.343 144.081 147.097 143.217 147.851 142.352C149.338 140.63 150.793 138.903 152.176 137.148C153.56 135.396 154.878 133.616 156.063 131.813C156.66 130.912 157.214 130.003 157.722 129.095C158.231 128.187 158.693 127.276 159.065 126.381C159.441 125.488 159.739 124.607 159.913 123.798C160.002 123.393 160.058 123.008 160.079 122.658C160.083 122.49 160.107 122.299 160.088 122.177C160.085 122.108 160.083 122.039 160.084 121.97C160.088 121.906 160.055 121.77 160.043 121.673C159.945 120.816 159.711 119.967 159.459 119.324C159.197 118.666 158.885 118.24 158.611 118.006C158.336 117.771 158.054 117.62 157.505 117.551C156.973 117.481 156.247 117.526 155.459 117.696C153.87 118.033 152.103 118.794 150.421 119.705C148.729 120.616 147.079 121.689 145.505 122.826C144.716 123.402 143.939 123.966 143.214 124.585C142.483 125.205 141.76 125.819 141.043 126.427C138.262 128.96 135.703 131.556 133.595 134.284C131.569 136.713 129.822 139.376 128.153 142.096C127.751 142.784 127.389 143.496 127.003 144.196L126.431 145.25L126.144 145.778L125.893 146.322L124.885 148.503C124.722 148.869 124.535 149.226 124.391 149.6L123.959 150.723L123.09 152.97C122.828 153.728 122.606 154.5 122.361 155.266L122.001 156.417C121.942 156.61 121.877 156.801 121.823 156.994L121.683 157.58L121.119 159.926C121.033 160.319 120.91 160.705 120.855 161.103L120.655 162.293L120.251 164.674C120.176 165.34 120.116 166.008 120.051 166.675L120.072 166.666L120.655 166.368L121.818 165.771C122.579 165.326 123.354 164.924 124.101 164.438C125.803 163.396 127.477 162.202 129.134 160.932C130.795 159.666 132.422 158.292 134.028 156.853C137.246 153.985 140.349 150.808 143.347 147.494L144.454 146.252Z" fill="#1A1A1A" fill-opacity="0.4"/>
</svg>
