<svg width="47" height="40" viewBox="0 0 47 40" fill="none" xmlns="http://www.w3.org/2000/svg">
<path d="M6.81687 14.3789C6.18297 14.6025 5.8829 15.3868 6.14629 16.1294C6.40894 16.872 7.13602 17.2921 7.76918 17.0678C8.40308 16.8442 8.70316 16.0605 8.4405 15.3179C8.17711 14.5753 7.45003 14.1545 6.81687 14.3789ZM7.8653 7.53715C8.54908 7.02694 8.95114 6.40823 8.76258 6.15606C8.57403 5.90315 7.86603 6.11207 7.18151 6.62155C6.49772 7.13177 6.09566 7.75048 6.28422 8.00265C6.47277 8.25556 7.18151 8.04664 7.8653 7.53715ZM12.5711 4.93403C13.3371 4.55797 13.8455 4.02283 13.7061 3.7406C13.5667 3.45764 12.833 3.53314 12.0671 3.90921C11.3011 4.286 10.7927 4.82041 10.9321 5.1041C11.0715 5.38634 11.8052 5.31083 12.5711 4.93403Z" fill="#EBD163"/>
<path d="M13.4361 12.4215C14.225 12.4215 14.8646 11.7752 14.8646 10.9781C14.8646 10.1809 14.225 9.53467 13.4361 9.53467C12.6472 9.53467 12.0076 10.1809 12.0076 10.9781C12.0076 11.7752 12.6472 12.4215 13.4361 12.4215Z" fill="#EBD163"/>
<path d="M16.0289 14.5093C15.2402 14.5093 14.6011 15.1558 14.6011 15.9534C14.6011 16.751 15.2402 17.3976 16.0289 17.3976C16.8176 17.3976 17.4573 16.751 17.4573 15.9534C17.4573 15.1558 16.8176 14.5093 16.0289 14.5093Z" fill="#EBD163"/>
<path d="M26.5264 16.6192C27.6063 16.6192 28.4817 15.734 28.4817 14.6421C28.4817 13.5502 27.6063 12.665 26.5264 12.665C25.4466 12.665 24.5712 13.5502 24.5712 14.6421C24.5712 15.734 25.4466 16.6192 26.5264 16.6192Z" fill="#EBD163"/>
<path d="M29.5778 24.48C29.5778 25.5722 30.4531 26.4571 31.5331 26.4571C32.613 26.4571 33.489 25.5715 33.489 24.48C33.489 23.3884 32.613 22.5029 31.5331 22.5029C30.4531 22.5029 29.5778 23.3884 29.5778 24.48ZM26.7884 19.7121C26.7884 20.8044 27.6644 21.6892 28.7443 21.6892C29.8243 21.6892 30.6996 20.8044 30.6996 19.7121C30.6996 18.6198 29.8243 17.735 28.7443 17.735C27.6644 17.735 26.7884 18.6206 26.7884 19.7121ZM18.4772 6.17676C17.6878 6.17676 17.0488 6.82332 17.0488 7.6209C17.0488 8.41848 17.6878 9.06504 18.4772 9.06504C19.2659 9.06504 19.905 8.41848 19.905 7.6209C19.905 6.82332 19.2659 6.17676 18.4772 6.17676ZM31.547 31.9037C30.5741 31.48 29.6658 31.4111 29.5176 31.7498C29.3694 32.0892 30.0385 32.7079 31.0114 33.1316C31.9843 33.5561 32.8926 33.6243 33.0408 33.2856C33.189 32.9462 32.5199 32.3275 31.547 31.9037ZM26.1046 33.7672C25.131 33.3428 24.2227 33.2738 24.0745 33.6133C23.9263 33.9527 24.5954 34.5706 25.5682 34.9951C26.5411 35.4188 27.4494 35.4877 27.5976 35.1483C27.7458 34.8089 27.0767 34.1909 26.1038 33.7665L26.1046 33.7672Z" fill="#EBD163"/>
<path d="M40.4875 28.0354C41.1277 28.0354 41.6467 27.0958 41.6467 25.9367C41.6467 24.7775 41.1277 23.8379 40.4875 23.8379C39.8473 23.8379 39.3283 24.7775 39.3283 25.9367C39.3283 27.0958 39.8473 28.0354 40.4875 28.0354Z" fill="#EBD163"/>
<path d="M4.67379 19.8666C5.70094 22.1376 5.64665 22.2783 6.29889 22.3297C13.1126 22.8721 15.0766 23.2416 15.6988 23.1287C16.373 23.0055 16.8008 22.4301 17.2578 21.9756C17.3591 21.8752 17.4691 21.7835 17.5733 21.6853C16.5946 24.2056 16.2586 24.5421 16.2622 25.3792C16.263 25.6651 16.3723 25.9715 16.541 26.2457C16.7964 27.3622 18.194 29.3356 18.7685 30.1977C22.8536 36.332 22.318 35.64 22.6885 36.0761C23.4736 36.9983 23.938 36.9023 24.4391 37.0027C40.66 40.2583 39.8119 40.0831 40.0723 39.935C40.2543 39.9643 40.4707 39.8456 40.6101 39.7041C40.9036 39.4072 40.5573 40.3089 46.4473 23.6624C46.806 22.6493 47.3849 21.8084 46.6329 20.9815C45.7275 19.9846 48.6703 24.0274 40.9513 12.5791C40.7165 12.1525 39.7488 11.9084 36.1824 11.4172C34.9153 11.2428 25.7179 9.37563 25.4692 9.32212C24.9688 9.19823 24.2197 9.01643 23.6409 9.42475L20.7311 2.91365C20.6258 2.68057 20.4667 2.47574 20.2668 2.31596C20.067 2.15617 19.8321 2.04597 19.5814 1.99438C19.3789 1.90275 19.6482 1.96579 13.1309 1.86976C12.241 1.8507 11.4647 1.83457 10.5293 2.42982C5.15875 5.85471 0.706054 8.40212 0.439728 8.67922C0.359626 8.70014 0.287116 8.74336 0.23063 8.80384C-0.303488 9.33165 0.22476 10.0178 0.467608 10.5559C0.501357 10.6299 4.2013 18.8227 4.67379 19.8666ZM8.14262 10.1695L13.5601 21.2059C11.3539 20.9713 9.14776 20.7367 6.96727 20.5153C6.71268 20.4897 6.79192 20.4493 6.52486 19.8797C5.05604 16.7246 7.29522 21.527 1.79777 9.7275C2.8484 9.72457 4.53879 9.58309 4.73175 9.58236L7.98708 9.5633C7.99955 9.76929 8.04945 9.97455 8.14262 10.1695ZM34.2865 30.6148C35.8896 33.1563 37.3746 35.5337 38.9241 38.1251C34.241 37.2292 24.8045 35.42 24.0033 35.2698C23.8756 35.0718 18.5095 26.9099 18.4611 26.8366C24.0591 27.9625 33.3504 30.5481 34.2865 30.6148ZM45.3357 21.6186L39.8662 37.5555C38.3115 34.9567 36.8236 32.575 35.219 30.0298C36.6519 26.4048 36.8471 24.8455 40.6446 14.0805L44.9946 20.4383C45.4216 21.0629 45.528 20.9735 45.3357 21.6186ZM25.2043 10.3895C26.4861 10.649 34.7642 12.3321 36.032 12.5066C36.8119 12.6143 38.9696 12.9112 39.806 13.1509C39.7796 13.2279 34.5147 28.8122 34.241 29.5115C33.2594 29.3539 23.9138 26.7948 18.3143 25.6849C18.1808 25.66 17.8793 25.6087 17.7516 25.5456C20.4772 19.6452 21.7142 15.8809 24.1163 10.55C24.2586 10.2311 24.3701 10.1827 25.2043 10.3895ZM22.9277 10.5265C22.547 11.3828 22.1752 12.2429 21.8125 13.1069C21.9864 12.2009 21.2975 11.3872 20.4112 11.3872C20.2225 11.3883 20.036 11.4266 19.8621 11.4998C19.6883 11.573 19.5306 11.6797 19.398 11.8138C19.2654 11.9479 19.1606 12.1068 19.0894 12.2814C19.0183 12.4559 18.9823 12.6428 18.9835 12.8313C18.9835 14.2219 20.7619 14.8172 21.5733 13.6655C20.9717 15.1067 20.4875 16.3082 19.6893 18.2619L15.5616 21.3232C15.4969 21.3711 15.4225 21.4041 15.3436 21.42C15.2647 21.4358 15.1832 21.434 15.1051 21.4148C15.0269 21.3955 14.954 21.3592 14.8915 21.3086C14.829 21.2579 14.7785 21.194 14.7435 21.1216L9.13456 9.68938C9.07613 9.56529 9.06538 9.42407 9.10434 9.29257C9.14329 9.16106 9.22924 9.04844 9.34586 8.97611C19.3562 2.9481 18.9424 2.93564 19.3826 3.06906C19.8499 3.20981 19.5799 3.21127 22.9277 10.5265ZM11.1214 3.35715C11.7743 2.9415 12.3055 2.9525 13.1082 2.97009L17.0062 3.01628C8.42729 8.30096 8.66574 7.97914 8.30917 8.4659L4.72588 8.48276C4.45002 8.48422 3.81318 8.5524 2.61802 8.60445C5.60923 6.77911 8.42509 5.0762 11.1214 3.35715Z" fill="#EBD163"/>
<path d="M30.1852 7.31361C30.2432 7.31361 30.0642 7.33194 32.9483 6.95514C33.2498 6.91556 33.4618 6.63992 33.4215 6.33863C33.4124 6.26698 33.3893 6.19782 33.3533 6.13515C33.3174 6.07248 33.2694 6.01755 33.2121 5.97352C33.1548 5.92949 33.0893 5.89724 33.0195 5.87862C32.9497 5.86001 32.8768 5.85541 32.8052 5.86507L30.1148 6.21841C29.4347 6.30785 29.5058 7.31361 30.1852 7.31361ZM28.5036 4.45685L30.0766 2.70409C30.1249 2.65032 30.1621 2.58758 30.1861 2.51945C30.2101 2.45132 30.2204 2.37914 30.2165 2.30702C30.2126 2.23489 30.1945 2.16425 30.1633 2.09912C30.132 2.03398 30.0883 1.97563 30.0344 1.9274C29.9806 1.87917 29.9178 1.842 29.8497 1.81802C29.7815 1.79404 29.7092 1.78371 29.637 1.78762C29.5649 1.79154 29.4942 1.80962 29.429 1.84083C29.3638 1.87205 29.3054 1.91579 29.2571 1.96955L27.6834 3.72232C27.6351 3.77608 27.5979 3.83882 27.5739 3.90695C27.5499 3.97508 27.5396 4.04727 27.5435 4.11939C27.5474 4.19151 27.5655 4.26216 27.5967 4.32729C27.628 4.39242 27.6717 4.45077 27.7256 4.499C27.7794 4.54723 27.8422 4.5844 27.9103 4.60838C27.9785 4.63237 28.0508 4.6427 28.123 4.63878C28.1951 4.63487 28.2658 4.61679 28.331 4.58557C28.3962 4.55436 28.4554 4.51062 28.5036 4.45685ZM25.7237 3.0457H25.7457C25.8878 3.04542 26.0243 2.99026 26.1265 2.89174C26.2288 2.79323 26.289 2.659 26.2945 2.51716L26.3679 0.572329C26.3734 0.42673 26.3209 0.284881 26.2219 0.177943C26.1228 0.0710055 25.9854 0.0077248 25.8396 0.00200244C25.5278 -0.025121 25.2798 0.227054 25.2688 0.530544L25.1955 2.47537C25.1899 2.62097 25.2424 2.76282 25.3415 2.86976C25.4405 2.97669 25.578 3.03997 25.7237 3.0457Z" fill="#EBD163"/>
</svg>
