<svg width="136" height="32" viewBox="0 0 136 32" fill="none" xmlns="http://www.w3.org/2000/svg">
<g clip-path="url(#clip0_69_630)">
<path d="M10.8425 6.86173C9.1962 6.86173 8.83035 7.58688 8.83035 9.03717V11.5752H13.0377L12.6718 15.7448H8.83035V28.2535H3.7084V15.7448H0.232788V11.5752H3.7084V9.03717C3.7084 4.86758 5.35474 2.69214 10.1108 2.69214H13.0377V6.49916L10.8425 6.86173ZM13.4035 19.3705C13.4035 14.6571 15.5986 11.2126 20.3547 11.2126C22.9157 11.2126 24.3791 12.4816 25.1108 14.1132V11.5752H30.0499V28.2535H25.1108V25.7155C24.3791 27.3471 22.7328 28.6161 20.3547 28.6161C15.5986 28.6161 13.4035 25.1717 13.4035 20.4582V19.3705ZM18.5255 20.4582C18.5255 22.9962 19.4401 24.6278 21.8182 24.6278C24.1962 24.6278 24.9279 23.1775 24.9279 20.8208V19.1892C24.9279 16.8325 23.8303 15.3822 21.8182 15.3822C19.806 15.3822 18.5255 17.0138 18.5255 19.5518V20.4582ZM40.6596 11.2126C42.6718 11.2126 44.5011 11.5752 45.5986 12.3003L44.5011 15.9261C43.4115 15.4309 42.224 15.1831 41.0255 15.2009C38.2816 15.2009 37.0011 16.8325 37.0011 19.5518V20.4582C37.0011 23.1775 38.2816 24.8091 41.0255 24.8091C42.224 24.8269 43.4115 24.5791 44.5011 24.084L45.5986 27.7097C44.5011 28.4348 42.6718 28.7974 40.6596 28.7974C34.623 28.7974 31.8791 25.5342 31.8791 20.4582V19.7331C31.8791 14.4758 34.623 11.2126 40.6596 11.2126ZM46.1474 20.6395V19.1892C46.1474 14.4758 48.8913 11.3939 54.3791 11.3939C59.8669 11.3939 61.8791 14.4758 61.8791 19.1892V21.9085H51.2694C51.4523 24.2652 52.3669 25.1717 55.2938 25.1717C58.2206 25.1717 59.1352 24.8091 60.7816 24.084L61.6962 27.5284C60.4157 28.2535 57.6718 28.7974 55.1108 28.7974C48.5255 28.6161 46.1474 25.5342 46.1474 20.6395ZM51.2694 18.4641H57.4889V18.1015C57.4889 16.2886 56.7572 14.8383 54.5621 14.8383C52.3669 14.8383 51.2694 16.1073 51.2694 18.4641ZM80.7206 20.4582C80.7206 25.1717 78.5255 28.6161 73.7694 28.6161C71.2084 28.6161 69.3791 27.3471 68.8304 25.7155V28.2535H64.0743V3.236L69.1962 2.69214V13.7506C69.9279 12.3003 71.5743 11.0313 73.9523 11.0313C78.7084 11.0313 80.9035 14.4758 80.9035 19.1892L80.7206 20.4582ZM75.5986 19.3705C75.5986 17.0138 74.684 15.2009 72.306 15.2009C69.9279 15.2009 69.0133 16.6512 69.0133 19.0079V20.8208C69.0133 23.1775 70.1108 24.6278 72.306 24.6278C74.5011 24.6278 75.5986 22.8149 75.5986 20.4582V19.3705ZM82.5499 20.2769V19.3705C82.5499 14.6571 85.2938 11.0313 90.9645 11.0313C96.6352 11.0313 99.3791 14.4758 99.3791 19.3705V20.2769C99.3791 24.9904 96.6352 28.6161 90.9645 28.6161C85.2938 28.6161 82.5499 25.1717 82.5499 20.2769ZM94.2572 19.0079C94.2572 16.8325 93.3425 15.0196 90.9645 15.0196C88.5864 15.0196 87.6718 16.8325 87.6718 19.0079V20.6395C87.6718 22.8149 88.5864 24.6278 90.9645 24.6278C93.3425 24.6278 94.2572 22.8149 94.2572 20.6395V19.0079ZM100.843 20.2769V19.3705C100.843 14.6571 103.586 11.0313 109.257 11.0313C114.928 11.0313 117.672 14.4758 117.672 19.3705V20.2769C117.672 24.9904 114.928 28.6161 109.257 28.6161C103.586 28.6161 100.843 25.1717 100.843 20.2769ZM112.55 19.0079C112.55 16.8325 111.635 15.0196 109.257 15.0196C106.879 15.0196 105.965 16.8325 105.965 19.0079V20.6395C105.965 22.8149 106.879 24.6278 109.257 24.6278C111.635 24.6278 112.55 22.8149 112.55 20.6395V19.0079ZM124.623 19.5518L129.562 11.5752H135.05L129.745 19.7331L135.233 28.2535H129.928L124.623 20.0956V28.2535H119.501V3.236L124.623 2.69214V19.5518Z" fill="black" fill-opacity="0.84"/>
</g>
<defs>
<clipPath id="clip0_69_630">
<rect width="135" height="31" fill="white" transform="translate(0.232788 0.154053)"/>
</clipPath>
</defs>
</svg>
