<svg width="120" height="40" viewBox="0 0 120 40" fill="none" xmlns="http://www.w3.org/2000/svg">
<path d="M29.5135 13.8811H15.5027V18.0324H25.427C24.9405 23.8703 20.0757 26.3351 15.5027 26.3351C9.63243 26.3351 4.54054 21.7297 4.54054 15.2757C4.54054 8.98379 9.40541 4.15135 15.5027 4.15135C20.2054 4.15135 22.9946 7.16757 22.9946 7.16757L25.9135 4.15135C25.9135 4.15135 22.1838 0 15.373 0C6.71351 0 0 7.32973 0 15.2108C0 22.9622 6.32432 30.5189 15.6 30.5189C23.773 30.5189 29.7405 24.9081 29.7405 16.6378C29.7405 14.8865 29.5135 13.8811 29.5135 13.8811Z" fill="black" fill-opacity="0.84"/>
<path d="M40.9617 10.8647C35.2211 10.8647 31.1022 15.3729 31.1022 20.5945C31.1022 25.9134 35.0914 30.4864 41.0265 30.4864C46.4103 30.4864 50.7887 26.3675 50.7887 20.7242C50.8211 14.2053 45.6968 10.8647 40.9617 10.8647ZM41.0265 14.7242C43.8482 14.7242 46.54 16.9945 46.54 20.6918C46.54 24.2918 43.8806 26.6593 41.0265 26.6593C37.8806 26.6593 35.4157 24.162 35.4157 20.6918C35.4157 17.2539 37.8482 14.7242 41.0265 14.7242Z" fill="black" fill-opacity="0.84"/>
<path d="M62.4329 10.8647C56.6924 10.8647 52.5735 15.3729 52.5735 20.5945C52.5735 25.9134 56.5627 30.4864 62.4978 30.4864C67.8816 30.4864 72.26 26.3675 72.26 20.7242C72.26 14.2053 67.1356 10.8647 62.4329 10.8647ZM62.4978 14.7242C65.3194 14.7242 68.0113 16.9945 68.0113 20.6918C68.0113 24.2918 65.3519 26.6593 62.4978 26.6593C59.3519 26.6593 56.887 24.162 56.887 20.6918C56.8546 17.2539 59.3194 14.7242 62.4978 14.7242Z" fill="black" fill-opacity="0.84"/>
<path d="M83.4489 10.8647C78.1624 10.8647 74.0435 15.4702 74.0435 20.6593C74.0435 26.562 78.8435 30.4864 83.384 30.4864C86.1732 30.4864 87.6651 29.3837 88.7678 28.0864V30.0323C88.7678 33.4053 86.7246 35.4485 83.6111 35.4485C80.6273 35.4485 79.1029 33.2107 78.584 31.9458L74.8219 33.535C76.1516 36.3566 78.8435 39.308 83.6435 39.308C88.8975 39.308 92.8867 35.9999 92.8867 29.0918V11.4485H88.7678V13.1026C87.503 11.7729 85.7516 10.8647 83.4489 10.8647ZM83.8381 14.7242C86.4327 14.7242 89.0921 16.9296 89.0921 20.6918C89.0921 24.5188 86.4327 26.6269 83.8057 26.6269C80.984 26.6269 78.3894 24.3566 78.3894 20.7242C78.357 16.962 81.0813 14.7242 83.8381 14.7242Z" fill="black" fill-opacity="0.84"/>
<path d="M111.146 10.8647C106.184 10.8647 102 14.8215 102 20.6593C102 26.8539 106.67 30.5188 111.632 30.5188C115.784 30.5188 118.346 28.2485 119.838 26.2053L116.432 23.935C115.557 25.2972 114.065 26.6269 111.632 26.6269C108.876 26.6269 107.611 25.1026 106.832 23.6431L120 18.1945L119.319 16.6053C118.054 13.4593 115.07 10.8647 111.146 10.8647ZM111.341 14.6269C113.124 14.6269 114.422 15.5675 114.973 16.735L106.184 20.3999C105.795 17.5458 108.486 14.6269 111.341 14.6269Z" fill="black" fill-opacity="0.84"/>
<path d="M100.054 1.00586H95.7403V29.9356H100.054V1.00586Z" fill="black" fill-opacity="0.84"/>
</svg>
