<svg width="110" height="25" viewBox="0 0 110 25" fill="none" xmlns="http://www.w3.org/2000/svg">
<path d="M34.0989 4.26356C33.6962 2.76446 32.5103 1.5786 31.0112 1.17586C28.3039 0.4375 17.4074 0.4375 17.4074 0.4375C17.4074 0.4375 6.51101 0.459875 3.80368 1.19824C2.30458 1.60098 1.11873 2.78683 0.715987 4.28593C-5.33452e-08 6.99326 0 12.654 0 12.654C0 12.654 -5.33452e-08 18.3148 0.738362 21.0445C1.1411 22.5436 2.32696 23.7295 3.82606 24.1322C6.53338 24.8706 17.4298 24.8706 17.4298 24.8706C17.4298 24.8706 28.3262 24.8706 31.0336 24.1322C32.5327 23.7295 33.7185 22.5436 34.1213 21.0445C34.8596 18.3372 34.8596 12.654 34.8596 12.654C34.8596 12.654 34.8373 6.99326 34.0989 4.26356Z" fill="black" fill-opacity="0.84"/>
<path d="M22.9787 12.6541L13.9394 7.41846V17.8898L22.9787 12.6541Z" fill="white"/>
<path d="M50.5666 22.6556C49.873 22.1858 49.3807 21.4698 49.0899 20.4853C48.799 19.5008 48.6648 18.2031 48.6648 16.5697V14.3546C48.6648 12.7213 48.8214 11.3788 49.157 10.3943C49.4926 9.38748 50.0072 8.67149 50.7232 8.224C51.4392 7.77651 52.3566 7.53039 53.4977 7.53039C54.6164 7.53039 55.5338 7.75414 56.205 8.224C56.8762 8.69387 57.3908 9.40986 57.7041 10.3943C58.0173 11.3788 58.174 12.6989 58.174 14.3323V16.5474C58.174 18.1807 58.0173 19.4784 57.7041 20.4629C57.3908 21.4474 56.8986 22.1634 56.205 22.6332C55.5114 23.0807 54.5716 23.3269 53.4082 23.3269C52.1999 23.3492 51.2602 23.1031 50.5666 22.6556ZM54.4374 20.2615C54.6388 19.7693 54.7283 18.9414 54.7283 17.8227V13.0569C54.7283 11.9606 54.6388 11.1551 54.4374 10.6628C54.236 10.1482 53.9004 9.9021 53.4305 9.9021C52.9607 9.9021 52.6474 10.1482 52.4461 10.6628C52.2447 11.1774 52.1552 11.9606 52.1552 13.0569V17.8227C52.1552 18.9414 52.2447 19.7693 52.4237 20.2615C52.6027 20.7538 52.9383 20.9999 53.4305 20.9999C53.9004 20.9999 54.236 20.7538 54.4374 20.2615ZM103.483 16.6145V17.3976L103.572 19.6127C103.639 20.1049 103.751 20.4629 103.93 20.6867C104.109 20.9104 104.4 21.0223 104.78 21.0223C105.295 21.0223 105.653 20.8209 105.832 20.4182C106.033 20.0154 106.123 19.3442 106.145 18.4268L109.121 18.6058C109.143 18.7401 109.143 18.9191 109.143 19.1428C109.143 20.5524 108.763 21.604 107.98 22.2976C107.197 22.9912 106.123 23.3492 104.713 23.3492C103.013 23.3492 101.827 22.8122 101.156 21.7606C100.484 20.709 100.126 19.0533 100.126 16.8382V14.1309C100.126 11.8487 100.484 10.1706 101.178 9.11899C101.894 8.06738 103.102 7.53039 104.803 7.53039C105.988 7.53039 106.883 7.75414 107.51 8.17925C108.136 8.60437 108.584 9.27561 108.852 10.193C109.121 11.1103 109.233 12.3633 109.233 13.9743V16.5921H103.483V16.6145ZM103.93 10.1706C103.751 10.3943 103.639 10.73 103.572 11.2222C103.505 11.7144 103.483 12.4528 103.483 13.4597V14.556H105.988V13.4597C105.988 12.4752 105.966 11.7368 105.899 11.2222C105.832 10.7076 105.72 10.3496 105.541 10.1482C105.362 9.94685 105.093 9.83497 104.736 9.83497C104.355 9.85735 104.087 9.96922 103.93 10.1706ZM42.1985 16.3236L38.2829 2.18286H41.7063L43.0711 8.582C43.4291 10.1706 43.6752 11.5131 43.8542 12.6094H43.9437C44.0556 11.8039 44.3241 10.4838 44.7268 8.60437L46.1364 2.18286H49.5597L45.5994 16.3012V23.0807H42.2209V16.3236H42.1985Z" fill="black" fill-opacity="0.84"/>
<path d="M69.2718 7.82129V23.1031H66.5868L66.2959 21.2237H66.2288C65.4905 22.6333 64.3941 23.3493 62.9398 23.3493C61.9329 23.3493 61.1722 23.0136 60.7023 22.3424C60.2101 21.6712 59.9863 20.6419 59.9863 19.2323V7.82129H63.432V19.031C63.432 19.7022 63.4991 20.1944 63.6557 20.4853C63.8124 20.7762 64.0585 20.9104 64.3941 20.9104C64.685 20.9104 64.9758 20.8209 65.2443 20.6419C65.5128 20.4629 65.7142 20.2168 65.8484 19.9483V7.82129H69.2718Z" fill="black" fill-opacity="0.84"/>
<path d="M86.9253 7.82129V23.1031H84.2404L83.9495 21.2237H83.8824C83.144 22.6333 82.0477 23.3493 80.5933 23.3493C79.5865 23.3493 78.8257 23.0136 78.3559 22.3424C77.8636 21.6712 77.6399 20.6419 77.6399 19.2323V7.82129H81.0855V19.031C81.0855 19.7022 81.1527 20.1944 81.3093 20.4853C81.4659 20.7762 81.712 20.9104 82.0477 20.9104C82.3385 20.9104 82.6294 20.8209 82.8979 20.6419C83.1664 20.4629 83.3678 20.2168 83.502 19.9483V7.82129H86.9253Z" fill="black" fill-opacity="0.84"/>
<path d="M78.6243 4.95722H75.201V23.103H71.8448V4.95722H68.4215V2.18277H78.602V4.95722H78.6243ZM98.2916 10.26C98.0903 9.29789 97.7546 8.60428 97.2848 8.15679C96.8149 7.73167 96.1884 7.50792 95.3605 7.50792C94.7341 7.50792 94.1299 7.68692 93.593 8.04491C93.0336 8.40291 92.6308 8.87277 92.3176 9.45451H92.2952V1.39966H88.9838V23.0806H91.8254L92.1834 21.6263H92.2505C92.519 22.1409 92.9217 22.5437 93.4363 22.8569C93.978 23.1537 94.5863 23.3077 95.2039 23.3044C96.3674 23.3044 97.2176 22.7674 97.777 21.6934C98.314 20.6194 98.6049 18.9413 98.6049 16.6815V14.2651C98.6049 12.5646 98.493 11.2221 98.2916 10.26ZM95.1368 16.5025C95.1368 17.6212 95.0921 18.4939 95.0026 19.1203C94.9131 19.7468 94.7564 20.1943 94.5327 20.4628C94.3089 20.7313 94.0181 20.8656 93.6601 20.8656C93.3692 20.8656 93.1231 20.7984 92.877 20.6642C92.6308 20.5299 92.4518 20.3286 92.2952 20.0601V11.3787C92.4071 10.9536 92.6085 10.618 92.8993 10.3495C93.1902 10.081 93.4811 9.94676 93.8167 9.94676C94.1747 9.94676 94.4432 10.081 94.6222 10.3495C94.8236 10.618 94.9354 11.0879 95.0249 11.7367C95.0921 12.3856 95.1368 13.3029 95.1368 14.5112V16.5025Z" fill="black" fill-opacity="0.84"/>
</svg>
